<mxfile host="Electron" modified="2024-05-14T12:51:58.217Z" agent="Mozilla/5.0 (Windows NT 10.0; Win64; x64) AppleWebKit/537.36 (KHTML, like Gecko) draw.io/21.6.1 Chrome/112.0.5615.204 Electron/24.6.1 Safari/537.36" etag="J6qw8n5XNoskpESQx3KA" version="21.6.1" type="device">
  <diagram name="Página-1" id="tPML5PkydZOMGkXGde1w">
    <mxGraphModel dx="1311" dy="772" grid="1" gridSize="10" guides="1" tooltips="1" connect="1" arrows="1" fold="1" page="1" pageScale="1" pageWidth="1169" pageHeight="827" math="0" shadow="0">
      <root>
        <mxCell id="0" />
        <mxCell id="1" parent="0" />
        <mxCell id="xSIg8MoQUkurDaJjJt5W-29" value="" style="rounded=0;whiteSpace=wrap;html=1;fillColor=none;" vertex="1" parent="1">
          <mxGeometry x="420" y="120" width="560" height="640" as="geometry" />
        </mxCell>
        <mxCell id="xSIg8MoQUkurDaJjJt5W-1" value="Doctor" style="shape=umlActor;verticalLabelPosition=bottom;verticalAlign=top;html=1;outlineConnect=0;" vertex="1" parent="1">
          <mxGeometry x="300" y="570" width="30" height="60" as="geometry" />
        </mxCell>
        <mxCell id="xSIg8MoQUkurDaJjJt5W-2" value="Enfermera" style="shape=umlActor;verticalLabelPosition=bottom;verticalAlign=top;html=1;outlineConnect=0;" vertex="1" parent="1">
          <mxGeometry x="300" y="374" width="30" height="60" as="geometry" />
        </mxCell>
        <mxCell id="xSIg8MoQUkurDaJjJt5W-3" value="Paciente" style="shape=umlActor;verticalLabelPosition=bottom;verticalAlign=top;html=1;outlineConnect=0;" vertex="1" parent="1">
          <mxGeometry x="300" y="170" width="30" height="60" as="geometry" />
        </mxCell>
        <mxCell id="xSIg8MoQUkurDaJjJt5W-7" value="Identificarse" style="ellipse;whiteSpace=wrap;html=1;" vertex="1" parent="1">
          <mxGeometry x="440" y="150" width="130" height="50" as="geometry" />
        </mxCell>
        <mxCell id="xSIg8MoQUkurDaJjJt5W-8" value="Ver expediente médico" style="ellipse;whiteSpace=wrap;html=1;" vertex="1" parent="1">
          <mxGeometry x="640" y="150" width="130" height="50" as="geometry" />
        </mxCell>
        <mxCell id="xSIg8MoQUkurDaJjJt5W-9" value="Solicitar cita" style="ellipse;whiteSpace=wrap;html=1;" vertex="1" parent="1">
          <mxGeometry x="640" y="230" width="130" height="50" as="geometry" />
        </mxCell>
        <mxCell id="xSIg8MoQUkurDaJjJt5W-10" value="Seleccionar hora" style="ellipse;whiteSpace=wrap;html=1;" vertex="1" parent="1">
          <mxGeometry x="840" y="230" width="130" height="50" as="geometry" />
        </mxCell>
        <mxCell id="xSIg8MoQUkurDaJjJt5W-11" value="No seleccionar hora" style="ellipse;whiteSpace=wrap;html=1;" vertex="1" parent="1">
          <mxGeometry x="840" y="310" width="130" height="50" as="geometry" />
        </mxCell>
        <mxCell id="xSIg8MoQUkurDaJjJt5W-12" value="Consultar listado" style="ellipse;whiteSpace=wrap;html=1;" vertex="1" parent="1">
          <mxGeometry x="440" y="360" width="130" height="50" as="geometry" />
        </mxCell>
        <mxCell id="xSIg8MoQUkurDaJjJt5W-13" value="Consultar expediente" style="ellipse;whiteSpace=wrap;html=1;" vertex="1" parent="1">
          <mxGeometry x="440" y="470" width="130" height="50" as="geometry" />
        </mxCell>
        <mxCell id="xSIg8MoQUkurDaJjJt5W-14" value="Consultar listado" style="ellipse;whiteSpace=wrap;html=1;" vertex="1" parent="1">
          <mxGeometry x="440" y="570" width="130" height="50" as="geometry" />
        </mxCell>
        <mxCell id="xSIg8MoQUkurDaJjJt5W-15" value="Pasar consulta" style="ellipse;whiteSpace=wrap;html=1;" vertex="1" parent="1">
          <mxGeometry x="440" y="670" width="130" height="50" as="geometry" />
        </mxCell>
        <mxCell id="xSIg8MoQUkurDaJjJt5W-16" value="Diagnóstico final" style="ellipse;whiteSpace=wrap;html=1;" vertex="1" parent="1">
          <mxGeometry x="640" y="670" width="130" height="50" as="geometry" />
        </mxCell>
        <mxCell id="xSIg8MoQUkurDaJjJt5W-17" value="" style="endArrow=none;html=1;rounded=0;exitX=1;exitY=0.3333333333333333;exitDx=0;exitDy=0;exitPerimeter=0;entryX=0;entryY=0.5;entryDx=0;entryDy=0;" edge="1" parent="1" source="xSIg8MoQUkurDaJjJt5W-3" target="xSIg8MoQUkurDaJjJt5W-7">
          <mxGeometry width="50" height="50" relative="1" as="geometry">
            <mxPoint x="590" y="350" as="sourcePoint" />
            <mxPoint x="640" y="300" as="targetPoint" />
          </mxGeometry>
        </mxCell>
        <mxCell id="xSIg8MoQUkurDaJjJt5W-19" value="" style="endArrow=none;html=1;rounded=0;exitX=0;exitY=0.5;exitDx=0;exitDy=0;entryX=1;entryY=0.3333333333333333;entryDx=0;entryDy=0;entryPerimeter=0;" edge="1" parent="1" source="xSIg8MoQUkurDaJjJt5W-12" target="xSIg8MoQUkurDaJjJt5W-2">
          <mxGeometry width="50" height="50" relative="1" as="geometry">
            <mxPoint x="340" y="130" as="sourcePoint" />
            <mxPoint x="450" y="145" as="targetPoint" />
          </mxGeometry>
        </mxCell>
        <mxCell id="xSIg8MoQUkurDaJjJt5W-20" value="" style="endArrow=none;html=1;rounded=0;exitX=0;exitY=0.5;exitDx=0;exitDy=0;entryX=1;entryY=0.3333333333333333;entryDx=0;entryDy=0;entryPerimeter=0;" edge="1" parent="1" source="xSIg8MoQUkurDaJjJt5W-13" target="xSIg8MoQUkurDaJjJt5W-1">
          <mxGeometry width="50" height="50" relative="1" as="geometry">
            <mxPoint x="450" y="395" as="sourcePoint" />
            <mxPoint x="340" y="404" as="targetPoint" />
          </mxGeometry>
        </mxCell>
        <mxCell id="xSIg8MoQUkurDaJjJt5W-21" value="" style="endArrow=none;html=1;rounded=0;exitX=0;exitY=0.5;exitDx=0;exitDy=0;entryX=1;entryY=0.3333333333333333;entryDx=0;entryDy=0;entryPerimeter=0;" edge="1" parent="1" source="xSIg8MoQUkurDaJjJt5W-14" target="xSIg8MoQUkurDaJjJt5W-1">
          <mxGeometry width="50" height="50" relative="1" as="geometry">
            <mxPoint x="450" y="505" as="sourcePoint" />
            <mxPoint x="340" y="514" as="targetPoint" />
          </mxGeometry>
        </mxCell>
        <mxCell id="xSIg8MoQUkurDaJjJt5W-22" value="" style="endArrow=none;html=1;rounded=0;exitX=0;exitY=0.5;exitDx=0;exitDy=0;entryX=1;entryY=0.3333333333333333;entryDx=0;entryDy=0;entryPerimeter=0;" edge="1" parent="1" source="xSIg8MoQUkurDaJjJt5W-15" target="xSIg8MoQUkurDaJjJt5W-1">
          <mxGeometry width="50" height="50" relative="1" as="geometry">
            <mxPoint x="450" y="605" as="sourcePoint" />
            <mxPoint x="340" y="514" as="targetPoint" />
          </mxGeometry>
        </mxCell>
        <mxCell id="xSIg8MoQUkurDaJjJt5W-23" value="&amp;lt;&amp;lt;extend&amp;gt;&amp;gt;" style="html=1;verticalAlign=bottom;labelBackgroundColor=none;endArrow=open;endFill=0;dashed=1;rounded=0;entryX=1;entryY=0.5;entryDx=0;entryDy=0;exitX=0;exitY=0.5;exitDx=0;exitDy=0;" edge="1" parent="1" source="xSIg8MoQUkurDaJjJt5W-8" target="xSIg8MoQUkurDaJjJt5W-7">
          <mxGeometry width="160" relative="1" as="geometry">
            <mxPoint x="750" y="70" as="sourcePoint" />
            <mxPoint x="690" y="160" as="targetPoint" />
          </mxGeometry>
        </mxCell>
        <mxCell id="xSIg8MoQUkurDaJjJt5W-24" value="&amp;lt;&amp;lt;extend&amp;gt;&amp;gt;" style="html=1;verticalAlign=bottom;labelBackgroundColor=none;endArrow=open;endFill=0;dashed=1;rounded=0;entryX=1;entryY=0.5;entryDx=0;entryDy=0;exitX=0;exitY=0.5;exitDx=0;exitDy=0;" edge="1" parent="1" source="xSIg8MoQUkurDaJjJt5W-9" target="xSIg8MoQUkurDaJjJt5W-7">
          <mxGeometry width="160" relative="1" as="geometry">
            <mxPoint x="650" y="185" as="sourcePoint" />
            <mxPoint x="580" y="185" as="targetPoint" />
          </mxGeometry>
        </mxCell>
        <mxCell id="xSIg8MoQUkurDaJjJt5W-26" value="&amp;lt;&amp;lt;extend&amp;gt;&amp;gt;" style="html=1;verticalAlign=bottom;labelBackgroundColor=none;endArrow=open;endFill=0;dashed=1;rounded=0;entryX=1;entryY=0.5;entryDx=0;entryDy=0;exitX=0;exitY=0.5;exitDx=0;exitDy=0;" edge="1" parent="1" source="xSIg8MoQUkurDaJjJt5W-10" target="xSIg8MoQUkurDaJjJt5W-9">
          <mxGeometry width="160" relative="1" as="geometry">
            <mxPoint x="650" y="265" as="sourcePoint" />
            <mxPoint x="580" y="185" as="targetPoint" />
          </mxGeometry>
        </mxCell>
        <mxCell id="xSIg8MoQUkurDaJjJt5W-27" value="&amp;lt;&amp;lt;extend&amp;gt;&amp;gt;" style="html=1;verticalAlign=bottom;labelBackgroundColor=none;endArrow=open;endFill=0;dashed=1;rounded=0;entryX=1;entryY=0.5;entryDx=0;entryDy=0;exitX=0;exitY=0.5;exitDx=0;exitDy=0;" edge="1" parent="1" source="xSIg8MoQUkurDaJjJt5W-11" target="xSIg8MoQUkurDaJjJt5W-9">
          <mxGeometry width="160" relative="1" as="geometry">
            <mxPoint x="850" y="265" as="sourcePoint" />
            <mxPoint x="780" y="265" as="targetPoint" />
          </mxGeometry>
        </mxCell>
        <mxCell id="xSIg8MoQUkurDaJjJt5W-28" value="&amp;lt;&amp;lt;include&amp;gt;&amp;gt;" style="html=1;verticalAlign=bottom;labelBackgroundColor=none;endArrow=open;endFill=0;dashed=1;rounded=0;exitX=1;exitY=0.5;exitDx=0;exitDy=0;entryX=0;entryY=0.5;entryDx=0;entryDy=0;" edge="1" parent="1" source="xSIg8MoQUkurDaJjJt5W-15" target="xSIg8MoQUkurDaJjJt5W-16">
          <mxGeometry width="160" relative="1" as="geometry">
            <mxPoint x="500" y="500" as="sourcePoint" />
            <mxPoint x="660" y="500" as="targetPoint" />
          </mxGeometry>
        </mxCell>
        <mxCell id="xSIg8MoQUkurDaJjJt5W-30" value="Sistrema de gestión de pacientes" style="text;html=1;align=center;verticalAlign=middle;resizable=0;points=[];autosize=1;strokeColor=none;fillColor=none;" vertex="1" parent="1">
          <mxGeometry x="780" y="90" width="200" height="30" as="geometry" />
        </mxCell>
      </root>
    </mxGraphModel>
  </diagram>
</mxfile>
